<svg width="15" height="19" viewBox="0 0 15 19" fill="none" xmlns="http://www.w3.org/2000/svg">
<path d="M7.50001 0.3125C5.58617 0.314758 3.75136 1.07603 2.39807 2.42932C1.04479 3.78261 0.283515 5.61741 0.281258 7.53125C0.278965 9.09524 0.789839 10.6168 1.73551 11.8625C1.73551 11.8625 1.93238 12.1217 1.96454 12.1591L7.50001 18.6875L13.0381 12.1558C13.067 12.1211 13.2645 11.8625 13.2645 11.8625L13.2652 11.8605C14.2104 10.6154 14.721 9.09452 14.7188 7.53125C14.7165 5.61741 13.9552 3.78261 12.6019 2.42932C11.2487 1.07603 9.41385 0.314758 7.50001 0.3125ZM7.50001 10.1562C6.98083 10.1562 6.47331 10.0023 6.04164 9.71386C5.60996 9.42542 5.2735 9.01545 5.07482 8.53579C4.87614 8.05614 4.82416 7.52834 4.92545 7.01914C5.02673 6.50994 5.27674 6.04221 5.64385 5.67509C6.01096 5.30798 6.4787 5.05797 6.9879 4.95669C7.4971 4.8554 8.0249 4.90739 8.50455 5.10607C8.98421 5.30475 9.39418 5.6412 9.68262 6.07288C9.97105 6.50456 10.125 7.01207 10.125 7.53125C10.1241 8.22718 9.8473 8.89435 9.3552 9.38645C8.86311 9.87854 8.19593 10.1554 7.50001 10.1562Z" fill="#E94B3F"/>
</svg>
